<?xml version="1.0" encoding="UTF-8"?>
<svg width="199px" height="33px" viewBox="0 0 199 33" version="1.1" xmlns="http://www.w3.org/2000/svg" xmlns:xlink="http://www.w3.org/1999/xlink">
    <title>blue-scope-logo</title>
    <g id="Web" stroke="none" stroke-width="1" fill="none" fill-rule="evenodd">
        <path d="M74.6057418,15.1446712 L81.6350719,19.2025712 C74.1011818,28.4905213 62.9223217,31.5797613 58.7240016,32.4603613 L58.7240016,32.4603613 L58.7240016,32.4567913 L50.9652016,27.9776313 C51.5578216,27.8205513 52.1575816,27.6753713 52.7644816,27.5420913 C61.4479117,25.6404713 68.7176218,21.5552012 74.3689318,15.4029012 L74.3689318,15.4029012 L74.6057418,15.1446712 Z M57.4028636,5.21269304 L64.6380637,9.38959309 C59.5401037,14.6291631 53.2223936,18.1349032 45.8182135,19.8056632 C36.8325234,21.8369932 29.5247333,26.1436033 24.1994833,32.4565533 L24.1994833,32.4565533 L16.9476232,28.2701333 C22.5037332,21.4074032 29.7996233,16.9889332 38.6401334,15.1408632 C45.7741835,13.6402731 51.9764636,10.4058531 57.0756136,5.52566305 L57.0756136,5.52566305 L57.4028636,5.21269304 Z M66.0423827,10.1996261 L73.2121328,14.3396361 C67.7845427,20.2467962 60.7980527,24.1726063 52.4287826,26.0063963 C46.4514125,27.3058763 41.7366325,29.6799263 38.0297824,32.4502463 L38.0297824,32.4502463 L30.8326623,28.2959563 C35.1321324,25.0067963 40.2610324,22.6732062 46.1646225,21.3392162 C53.8615426,19.6018162 60.4636627,15.9425662 65.7865327,10.4638061 L65.7865327,10.4638061 L66.0423827,10.1996261 Z M180.33165,13.6545531 C183.43517,13.5950531 185.91989,16.1583132 185.87943,19.2237532 C185.87943,22.4081932 183.53513,24.8108033 180.39115,24.8108033 C179.19044,24.8108033 178.02781,24.4109633 177.24598,23.7695532 L177.24598,23.7695532 L177.2079,23.7695532 L177.2079,28.8365733 L173.74262,28.8365733 L173.74262,13.8949331 L177.02583,13.8949331 L177.02583,14.8564531 L177.06748,14.8564531 C177.90881,14.0555831 178.99052,13.6545531 180.33165,13.6545531 Z M48.9631455,0.340237989 L55.9853356,4.39337803 C51.8917356,8.31085808 46.1666455,11.9522581 38.3174054,13.6015981 C27.5050653,15.8637882 20.2448752,21.6269582 15.5693652,27.4734283 L15.5693652,27.4734283 L8.59120509,23.4452782 C8.9755751,22.8657482 15.7966552,12.2735581 30.9786753,8.79518808 C44.8647855,5.61312805 48.9631455,0.340237989 48.9631455,0.340237989 L48.9631455,0.340237989 Z M139.883074,10.2751911 C143.180564,10.2751911 145.708124,11.9411911 146.342394,14.5008811 L146.342394,14.5008811 L143.023484,15.2327312 C142.549864,13.8261511 141.502664,13.1454711 139.883074,13.1454711 C138.519334,13.1454711 137.612554,13.6476511 137.612554,14.4211511 C137.691094,15.1149212 138.184944,15.3255512 141.463394,16.0990512 C145.077424,16.9510912 146.794594,18.2684212 146.794594,20.5877312 C146.794594,23.2069212 144.365804,24.8931513 140.653004,24.8931513 C136.683164,24.8931513 134.116333,23.0486512 133.622483,19.8558812 L133.622483,19.8558812 L136.960434,19.2608812 C137.374554,21.1827312 138.519334,22.0026412 140.673234,22.0026412 C142.313054,22.0026412 143.279334,21.5218812 143.279334,20.6686512 C143.279334,19.8356512 142.549864,19.4298612 139.210724,18.6754012 C135.676423,17.8828612 134.096103,16.6226512 134.096103,14.4806511 C134.096103,12.0209211 136.427314,10.2751911 139.883074,10.2751911 Z M166.591801,13.5137352 C169.984692,13.5669186 172.587566,16.0500496 172.528225,19.2032852 L172.528168,19.4172195 C172.467466,22.5390868 169.7871,24.950853 166.359265,24.8926753 L166.126729,24.8928352 C162.733837,24.8396518 160.130963,22.3565208 160.190305,19.2032852 L160.190362,18.9893509 C160.251064,15.8674836 162.93143,13.4557174 166.359265,13.5138951 Z M126.931946,13.5136571 C130.398416,13.5136571 132.902176,15.9995672 132.902176,19.2232772 L132.902176,19.2232772 L132.902176,20.2442972 L124.347266,20.2442972 C124.448416,21.4473872 125.470626,22.1673372 127.153286,22.1673372 C128.254036,22.1673372 129.315516,21.6663472 130.357956,20.6845972 L130.357956,20.6845972 L132.279806,22.8896672 C130.818486,24.2498373 129.196516,24.8912473 127.033096,24.8912473 C123.327436,24.8912473 120.922446,22.6480972 120.922446,19.2232772 C120.862946,16.0388372 123.547586,13.4541571 126.931946,13.5136571 Z M153.680648,13.5144901 C156.445018,13.5144901 158.766708,15.0769602 159.368848,17.3189202 L159.368848,17.3189202 L156.142758,18.3006702 C155.823838,17.1999202 154.942048,16.5394702 153.680648,16.5394702 C152.158638,16.5394702 151.097158,17.6009502 151.097158,19.2026902 C151.097158,20.7842002 152.158638,21.8671002 153.680648,21.8671002 C154.942048,21.8671002 155.803608,21.2256902 156.142758,20.1047102 L156.142758,20.1047102 L159.368848,21.0852702 C158.766708,23.3296102 156.445018,24.8920803 153.680648,24.8920803 C150.255828,24.8920803 147.631878,22.4478202 147.631878,19.2026902 C147.631878,15.9587502 150.255828,13.5144901 153.680648,13.5144901 Z M192.808443,13.5136571 C196.273723,13.5136571 198.779863,15.9995672 198.779863,19.2232772 L198.779863,19.2232772 L198.779863,20.2442972 L190.224953,20.2442972 C190.324913,21.4473872 191.348313,22.1673372 193.030973,22.1673372 C194.131723,22.1673372 195.192013,21.6663472 196.234453,20.6845972 L196.234453,20.6845972 L198.157493,22.8896672 C196.696173,24.2498373 195.074203,24.8912473 192.909593,24.8912473 C189.205123,24.8912473 186.800133,22.6480972 186.800133,19.2232772 C186.740633,16.0388372 189.425273,13.4541571 192.808443,13.5136571 Z M111.309745,13.8956471 L111.309745,19.3030072 C111.309745,20.9249772 112.029695,21.7079972 113.632625,21.7079972 C115.135595,21.7079972 116.136385,20.7452872 116.136385,19.3030072 L116.136385,19.3030072 L116.136385,13.8956471 L119.601665,13.8956471 L119.601665,24.5104473 L116.236345,24.5104473 L116.236345,23.4906172 L116.198265,23.4906172 C115.356935,24.3712173 114.193115,24.8115173 112.711565,24.8115173 C111.208595,24.8115173 110.026925,24.3902573 109.146325,23.5310772 C108.284765,22.6683272 107.843275,21.5080772 107.843275,20.0443772 L107.843275,20.0443772 L107.843275,13.8956471 L111.309745,13.8956471 Z M106.242011,10.2755481 L106.242011,24.5115183 L102.776731,24.5115183 L102.776731,10.2755481 L106.242011,10.2755481 Z M96.4930551,10.2750721 C99.0170451,10.2750721 100.844885,11.8375421 100.844885,14.0616521 C100.844885,15.1838222 100.303435,16.2750522 99.4228351,16.8367322 L99.4228351,16.8367322 L99.4228351,16.8760022 C100.624735,17.4579122 101.375625,18.6895622 101.375625,20.1318422 C101.375625,23.0354422 99.5489751,24.5110423 95.8421251,24.5110423 L95.8421251,24.5110423 L88.596215,24.5110423 L88.565275,10.2750721 Z M33.1047294,0.340118989 L39.9543694,4.29448903 C37.5446194,5.33335904 34.4791794,6.38174906 30.6283393,7.26353907 C15.7735692,10.6669391 8.58596909,20.5998692 7.29600908,22.5562292 L7.29600908,22.5562292 L7.22222908,22.6549992 L0.000119000001,18.4852392 C0.342839004,18.0163792 0.691509008,17.5439492 1.07111901,17.0667592 C5.18137906,11.8676491 12.5962691,5.17984904 24.5997993,2.83554902 C27.5224393,2.26553901 30.5355193,1.525359 33.1047294,0.340118989 L33.1047294,0.340118989 Z M166.359265,16.5388752 C164.737295,16.5388752 163.655585,17.6205852 163.655585,19.2032852 C163.655585,20.7455252 164.737295,21.8676952 166.359265,21.8676952 C167.981235,21.8676952 169.062945,20.7455252 169.062945,19.2032852 C169.062945,17.6610452 167.981235,16.5388752 166.359265,16.5388752 Z M179.76997,16.6783432 C178.18727,16.6783432 177.12579,17.7195932 177.12579,19.1832932 C177.12579,20.7255332 178.22773,21.8072432 179.76997,21.8072432 C181.31221,21.8072432 182.41534,20.7255332 182.41534,19.1832932 C182.41534,17.7195932 181.35267,16.6783432 179.76997,16.6783432 Z M96.1729451,18.5788922 L92.071015,18.5788922 L92.100765,21.5062922 L96.2026951,21.5062922 C97.3248651,21.5062922 97.8496551,20.9922122 97.8496551,20.0104622 C97.8496551,19.1096322 97.2344251,18.5788922 96.1729451,18.5788922 L96.1729451,18.5788922 Z M126.972406,16.1387972 C125.550356,16.1387972 124.509106,16.8587472 124.368686,17.9606872 L124.368686,17.9606872 L129.536856,17.9606872 C129.396436,16.8194772 128.434916,16.1387972 126.972406,16.1387972 Z M192.850093,16.1387972 C191.426853,16.1387972 190.385603,16.8587472 190.246373,17.9606872 L190.246373,17.9606872 L195.414543,17.9606872 C195.274123,16.8194772 194.312603,16.1387972 192.850093,16.1387972 Z M95.8528351,13.2798221 L92.071015,13.2798221 L92.071015,15.8549822 L95.8528351,15.8549822 C96.7941251,15.8549822 97.2986851,15.3028222 97.2986851,14.4817221 C97.2986851,13.7010821 96.7941251,13.2798221 95.8528351,13.2798221 L95.8528351,13.2798221 Z" id="blue-scope-logo" fill="#0044B4"></path>
    </g>
</svg>