<?xml version="1.0" encoding="UTF-8"?>
<svg width="140px" height="87px" viewBox="0 0 140 87" version="1.1" xmlns="http://www.w3.org/2000/svg" xmlns:xlink="http://www.w3.org/1999/xlink">
    <title>blue-scope-logo-stacked</title>
    <g id="Web" stroke="none" stroke-width="1" fill="none" fill-rule="evenodd">
        <path d="M114.029031,68.2867913 C117.66946,68.2169978 120.584037,71.2237018 120.536577,74.8194631 C120.536577,78.5548113 117.786713,81.373073 114.098824,81.373073 C112.690392,81.373073 111.326627,80.9040606 110.40954,80.1516867 L110.40954,80.1516867 L110.364872,80.1516867 L110.364872,86.0953014 L106.300099,86.0953014 L106.300099,68.568757 L110.151304,68.568757 L110.151304,69.69662 L110.200159,69.69662 C111.18704,68.7571995 112.455885,68.2867913 114.029031,68.2867913 Z M66.5828497,64.3227995 C70.4508056,64.3227995 73.4156336,66.2770176 74.1596323,69.279534 L74.1596323,69.279534 L70.2665507,70.1379941 C69.7109944,68.4880757 68.4826288,67.6896381 66.5828497,67.6896381 C64.9831826,67.6896381 63.9195296,68.2786952 63.9195296,69.1860107 C64.011657,69.999803 64.5909431,70.246872 68.4365651,71.1541875 C72.6758224,72.1536305 74.6900629,73.6988586 74.6900629,76.4194093 C74.6900629,79.4917193 71.8410921,81.4696672 67.4859776,81.4696672 C62.8293551,81.4696672 59.8184634,79.3060686 59.2391773,75.5609493 L59.2391773,75.5609493 L63.1545928,74.8630142 C63.6403556,77.1173444 64.9831826,78.0790988 67.5097074,78.0790988 C69.4332163,78.0790988 70.5666628,77.5151673 70.5666628,76.5143285 C70.5666628,75.5372195 69.7109944,75.0612278 65.7941831,74.1762462 C61.648449,73.2465967 59.7947336,71.7683703 59.7947336,69.2558043 C59.7947336,66.3705409 62.529243,64.3227995 66.5828497,64.3227995 Z M97.8900263,68.121294 C101.88071,68.1731908 104.94535,71.0898465 104.875613,74.7954541 L104.87591,75.0260086 C104.816006,78.6978423 101.667733,81.537478 97.6394228,81.4691088 L97.3888193,81.4696142 C93.3981359,81.4177174 90.3334959,78.5010618 90.4032325,74.7954541 C90.3320431,71.0126463 93.5271896,68.0520059 97.6394228,68.1217994 Z M82.7674045,68.1224974 C86.0100107,68.1224974 88.7333531,69.9552747 89.4396634,72.5850939 L89.4396634,72.5850939 L85.6554597,73.7366867 C85.2813665,72.4455069 84.2470268,71.670799 82.7674045,71.670799 C80.9820867,71.670799 79.7369707,72.9159151 79.7369707,74.7947562 C79.7369707,76.6498675 80.9820867,77.9201092 82.7674045,77.9201092 C84.2470268,77.9201092 85.2576367,77.1677353 85.6554597,75.8528257 L85.6554597,75.8528257 L89.4396634,77.0030226 C88.7333531,79.6356335 86.0100107,81.4684109 82.7674045,81.4684109 C78.7500905,81.4684109 75.6721971,78.6012938 75.6721971,74.7947562 C75.6721971,70.9896144 78.7500905,68.1224974 82.7674045,68.1224974 Z M51.3911771,68.1215202 C55.4573466,68.1215202 58.3942572,71.0374928 58.3942572,74.8189047 L58.3942572,74.8189047 L58.3942572,76.0165613 L48.3593474,76.0165613 C48.4779964,77.4277859 49.6770487,78.2722873 51.650809,78.2722873 C52.9419888,78.2722873 54.1871049,77.684626 55.409887,76.5330332 L55.409887,76.5330332 L57.6642171,79.1195804 C55.9500887,80.7150598 54.0475178,81.4674338 51.5098261,81.4674338 C47.1630868,81.4674338 44.3420334,78.8362188 44.3420334,74.8189047 C44.2722399,71.0835565 47.4213227,68.0517267 51.3911771,68.1215202 Z M128.66431,68.1215202 C132.729083,68.1215202 135.668786,71.0374928 135.668786,74.8189047 L135.668786,74.8189047 L135.668786,76.0165613 L125.633876,76.0165613 C125.751129,77.4277859 126.951577,78.2722873 128.925337,78.2722873 C130.216517,78.2722873 131.460237,77.684626 132.68302,76.5330332 L132.68302,76.5330332 L134.938746,79.1195804 C133.224617,80.7150598 131.322046,81.4674338 128.782959,81.4674338 C124.437615,81.4674338 121.616562,78.8362188 121.616562,74.8189047 C121.546768,71.0835565 124.695851,68.0517267 128.66431,68.1215202 Z M33.0663347,68.5695945 L33.0663347,74.912428 C33.0663347,76.8149989 33.9108361,77.7334814 35.7910731,77.7334814 C37.5540569,77.7334814 38.7279836,76.6042225 38.7279836,74.912428 L38.7279836,74.912428 L38.7279836,68.5695945 L42.7927572,68.5695945 L42.7927572,81.0207554 L38.8452367,81.0207554 L38.8452367,79.8244947 L38.8005689,79.8244947 C37.8136888,80.8574386 36.4485278,81.3739105 34.7106696,81.3739105 C32.9476858,81.3739105 31.5615868,80.8797725 30.528643,79.8719543 C29.5180331,78.8599485 29.0001653,77.4989752 29.0001653,75.7820551 L29.0001653,75.7820551 L29.0001653,68.5695945 L33.0663347,68.5695945 Z M27.1218825,64.3232183 L27.1218825,81.0220117 L23.0571089,81.0220117 L23.0571089,64.3232183 L27.1218825,64.3232183 Z M15.6863567,64.3226599 C18.6469971,64.3226599 20.7910535,66.1554373 20.7910535,68.7643184 C20.7910535,70.0806239 20.1559326,71.3606367 19.1229888,72.0194874 L19.1229888,72.0194874 L19.1229888,72.0655511 C20.5328175,72.7481315 21.4136115,74.192857 21.4136115,75.8846515 C21.4136115,79.2905745 19.270951,81.0214533 14.9228158,81.0214533 L14.9228158,81.0214533 L6.42336308,81.0214533 L6.38707046,64.3226599 Z M97.6394228,71.6701011 C95.7368519,71.6701011 94.4680061,72.938947 94.4680061,74.7954541 C94.4680061,76.6045017 95.7368519,77.9208072 97.6394228,77.9208072 C99.5419937,77.9208072 100.81084,76.6045017 100.81084,74.7954541 C100.81084,72.9864065 99.5419937,71.6701011 97.6394228,71.6701011 Z M113.37018,71.8336971 C111.513673,71.8336971 110.268557,73.0550834 110.268557,74.7720035 C110.268557,76.5810511 111.561133,77.849897 113.37018,77.849897 C115.179228,77.849897 116.473199,76.5810511 116.473199,74.7720035 C116.473199,73.0550834 115.226687,71.8336971 113.37018,71.8336971 Z M15.3108677,74.0630411 L10.4993036,74.0630411 L10.5342004,77.4968814 L15.3457644,77.4968814 C16.6620699,77.4968814 17.2776486,76.8938656 17.2776486,75.7422728 C17.2776486,74.6855992 16.5559838,74.0630411 15.3108677,74.0630411 L15.3108677,74.0630411 Z M51.4386367,71.2008096 C49.770572,71.2008096 48.5491857,72.045311 48.3844731,73.3378866 L48.3844731,73.3378866 L54.4467367,73.3378866 C54.282024,71.9992472 53.154161,71.2008096 51.4386367,71.2008096 Z M128.713165,71.2008096 C127.043705,71.2008096 125.822318,72.045311 125.659001,73.3378866 L125.659001,73.3378866 L131.721265,73.3378866 C131.556552,71.9992472 130.428689,71.2008096 128.713165,71.2008096 Z M14.9353786,67.8472318 L10.4993036,67.8472318 L10.4993036,70.8678946 L14.9353786,70.8678946 C16.0395119,70.8678946 16.6313608,70.2202109 16.6313608,69.2570605 C16.6313608,68.3413698 16.0395119,67.8472318 14.9353786,67.8472318 L14.9353786,67.8472318 Z M98.5596367,8 L111,15.2058181 C102.234455,24.2449113 91.3716439,30.2928715 78.6407326,33.1751987 C63.190538,36.6795667 50.6253618,44.1091552 41.4690089,55 L41.4690089,55 L29,47.7777584 C38.5532987,35.9384555 51.0980138,28.3158906 66.2965366,25.1276754 L66.2965366,25.1276754 C78.5650264,22.5389185 89.2293642,16.9590286 97.9969558,8.53992312 L97.9969558,8.53992312 L98.5596367,8 Z M113.649875,17 L126,24.0703819 C116.650802,34.1587336 104.616348,40.8633009 90.2000112,43.9950797 C79.9037992,46.2143545 71.782439,50.2687988 65.3972707,55 L65.3972707,55 L53,47.9052305 C60.4059753,42.2879452 69.2406705,38.3025992 79.4097942,36.0243876 C92.6679864,33.0572254 104.04035,26.8078939 113.209165,17.4511712 L113.209165,17.4511712 L113.649875,17 Z M127.852753,25 L140,32.0304446 C126.980833,48.1221222 107.662864,53.4743317 100.40783,55 L100.40783,55 L100.40783,54.9938149 L87,47.2335235 C88.024095,46.9613772 89.0605285,46.7098481 90.1093004,46.4789362 C105.114965,43.1843172 117.677608,36.1064532 127.443526,25.4473919 L127.443526,25.4473919 L127.852753,25 Z M83.9985688,0 L96,6.87145301 C89.0037412,13.5129161 79.2191478,19.6863295 65.8042283,22.4825227 C47.3251563,26.3177054 34.9169659,36.0882417 26.9261807,46 L26.9261807,46 L15,39.1709136 C15.6569162,38.1884128 27.3146358,20.2310425 53.2618073,14.3340204 C76.9941748,8.93934477 83.9985688,0 83.9985688,0 L83.9985688,0 Z M57.1708414,0 L69,6.73389505 C64.8384214,8.50298635 59.5444825,10.2882892 52.8941772,11.7898891 C27.2403574,17.5855375 14.8275503,34.50032 12.5998213,37.8318046 L12.5998213,37.8318046 L12.4724051,38 L0,30.8993174 C0.59186895,30.1008959 1.1940134,29.2963951 1.84959047,28.4837884 C8.94790767,19.6302261 21.753239,8.24157423 42.483038,4.24946672 C47.5303649,3.27879693 52.7338794,2.01834471 57.1708414,0 L57.1708414,0 Z" id="blue-scope-logo-stacked" fill="#0044B4"></path>
    </g>
</svg>